<?xml version="1.0" standalone="no"?>
<!DOCTYPE svg PUBLIC "-//W3C//DTD SVG 20010904//EN"
 "http://www.w3.org/TR/2001/REC-SVG-20010904/DTD/svg10.dtd">
<svg version="1.0" xmlns="http://www.w3.org/2000/svg"
 width="1782.000000pt" height="1782.000000pt" viewBox="0 0 1782.000000 1782.000000"
 preserveAspectRatio="xMidYMid meet">
<metadata>
Created by potrace 1.11, written by Peter Selinger 2001-2013
</metadata>
<g transform="translate(0.000000,1782.000000) scale(0.100000,-0.100000)"
fill="#000000" stroke="none">
<path d="M8867 15714 c-1 -1 -92 -4 -202 -7 -110 -4 -211 -9 -225 -11 -14 -2
-61 -7 -106 -11 -44 -3 -92 -7 -105 -10 -13 -2 -49 -6 -79 -10 -30 -4 -64 -8
-75 -10 -11 -1 -41 -6 -65 -9 -25 -3 -72 -11 -105 -16 -33 -6 -71 -13 -85 -15
-14 -2 -50 -9 -80 -15 -30 -6 -66 -13 -80 -16 -82 -16 -174 -35 -180 -39 -3
-2 -18 -6 -31 -8 -63 -12 -292 -76 -454 -127 -872 -277 -1695 -755 -2384
-1385 -92 -84 -352 -346 -426 -430 -38 -43 -77 -86 -85 -95 -31 -33 -199 -238
-261 -319 -239 -315 -476 -694 -639 -1026 -94 -191 -160 -331 -160 -340 0 -3
-9 -25 -19 -49 -11 -23 -29 -67 -41 -97 -11 -30 -24 -63 -29 -74 -93 -211
-248 -748 -306 -1055 -3 -14 -11 -59 -20 -100 -8 -41 -17 -95 -20 -120 -3 -25
-8 -52 -10 -60 -2 -8 -7 -39 -10 -69 -4 -30 -8 -61 -10 -70 -1 -9 -6 -47 -10
-84 -3 -37 -8 -77 -10 -87 -13 -67 -19 -275 -18 -680 0 -409 4 -555 18 -650 2
-14 6 -54 10 -90 3 -36 12 -105 20 -155 8 -49 17 -110 20 -135 3 -25 8 -52 10
-60 2 -8 7 -28 10 -45 2 -16 7 -40 9 -51 2 -12 7 -37 10 -56 3 -19 14 -72 25
-119 11 -47 22 -96 25 -109 10 -50 15 -72 21 -90 3 -10 7 -27 9 -37 2 -10 18
-67 36 -128 212 -738 520 -1379 959 -1995 53 -74 101 -142 108 -150 6 -8 51
-64 99 -125 79 -99 137 -168 259 -305 77 -87 387 -396 470 -469 47 -41 93 -81
102 -90 10 -9 56 -47 103 -85 47 -39 87 -72 90 -76 16 -18 268 -203 400 -292
139 -94 451 -288 464 -288 3 0 29 -14 58 -31 217 -129 654 -323 968 -431 232
-80 551 -172 670 -194 14 -3 41 -9 60 -14 19 -5 49 -11 65 -14 17 -3 55 -10
85 -16 30 -6 66 -13 80 -16 55 -9 96 -16 120 -20 14 -2 34 -6 45 -8 11 -3 47
-8 80 -12 33 -3 63 -8 66 -10 3 -2 44 -6 90 -10 46 -3 87 -8 90 -10 31 -18
1024 -28 1214 -11 149 13 372 41 495 63 14 2 43 7 65 10 183 26 598 129 858
214 411 134 670 243 1052 445 85 44 222 121 275 154 8 6 53 33 100 62 113 69
278 182 449 306 29 21 210 164 243 191 204 172 258 222 454 417 219 219 323
334 495 551 60 77 113 144 117 149 4 6 26 36 50 67 23 31 42 62 42 67 0 6 6
14 13 18 16 10 185 265 268 406 165 278 315 579 440 882 22 55 42 105 43 110
2 6 9 24 15 40 7 17 14 35 15 40 2 6 6 17 9 25 12 31 59 166 72 210 79 260
120 407 140 496 43 198 90 442 100 529 4 27 8 51 10 54 1 3 6 40 10 81 4 41 8
77 10 80 2 3 6 43 10 90 3 47 8 97 10 112 11 92 19 319 19 558 0 269 -6 395
-28 635 -4 39 -9 81 -11 95 -2 14 -7 50 -10 80 -3 30 -10 80 -15 110 -5 30
-11 71 -14 90 -22 147 -61 346 -92 465 -9 33 -17 67 -19 75 -2 8 -8 35 -15 60
-7 25 -14 52 -16 60 -43 171 -123 415 -217 660 -92 240 -278 629 -399 833 -32
55 -58 101 -58 103 0 7 -161 257 -228 354 -106 154 -338 461 -372 490 -3 3
-18 21 -34 40 -151 185 -484 519 -743 741 -261 226 -702 534 -988 690 -16 9
-66 36 -110 61 -277 153 -647 314 -1000 435 -86 29 -341 107 -385 118 -8 2
-71 17 -140 35 -147 36 -289 66 -435 91 -33 6 -71 12 -85 15 -14 2 -45 6 -70
10 -25 3 -56 7 -70 10 -42 8 -144 19 -260 29 -36 3 -83 8 -105 11 -88 10 -588
25 -598 18z"/>
</g>
</svg>
